<?xml version="1.0" encoding="utf-8"?>
<!-- Generator: Adobe Illustrator 16.0.0, SVG Export Plug-In . SVG Version: 6.00 Build 0)  -->
<!DOCTYPE svg PUBLIC "-//W3C//DTD SVG 1.1//EN" "http://www.w3.org/Graphics/SVG/1.1/DTD/svg11.dtd">
<svg version="1.1" id="Livello_1" xmlns="http://www.w3.org/2000/svg" xmlns:xlink="http://www.w3.org/1999/xlink" x="0px" y="0px"
	 width="41.253px" height="47.777px" viewBox="0 0 41.253 47.777" enable-background="new 0 0 41.253 47.777" xml:space="preserve">
<g>
	<path fill="#FAA700" d="M0.001,15.594c3.138,0,6.084,0,9.264,0c-0.635,1.354-1.248,2.551-1.744,3.795
		c-0.166,0.416-0.172,1.012-0.004,1.424c0.557,1.363,1.225,2.684,1.953,4.234C13.2,16.681,16.844,8.5,20.636-0.001
		c3.775,8.477,7.42,16.657,11.156,25.045c0.775-1.643,1.502-3.096,2.137-4.59c0.125-0.293-0.033-0.77-0.182-1.105
		c-0.525-1.199-1.104-2.375-1.729-3.705c3.123,0,6.088,0,9.233,0c-0.56,1.217-1.076,2.361-1.608,3.502
		c-1.664,3.545-3.354,7.078-4.972,10.645c-0.209,0.463-0.209,1.174-0.008,1.645c1.629,3.777,3.332,7.525,5.01,11.283
		c0.224,0.498,0.433,1.002,0.703,1.633c-3.097,0-6.026,0-9.142,0c0.558-1.188,1.037-2.311,1.604-3.391
		c0.397-0.76,0.533-1.418,0.045-2.217c-0.454-0.742-0.729-1.594-1.19-2.641c-1.85,3.926-3.608,7.662-5.502,11.678
		c-1.883-3.996-3.668-7.785-5.559-11.799c-1.86,3.943-3.637,7.719-5.553,11.783c-1.859-3.938-3.615-7.652-5.505-11.65
		c-0.596,1.338-1.133,2.461-1.582,3.619c-0.088,0.229,0.129,0.598,0.256,0.881c0.533,1.193,1.086,2.377,1.695,3.701
		c-3.061,0-5.953,0-9.004,0c0.162-0.41,0.301-0.805,0.469-1.184c1.724-3.867,3.482-7.723,5.15-11.613
		c0.229-0.531,0.215-1.342-0.025-1.867c-1.955-4.291-3.993-8.543-6.002-12.813C0.366,16.485,0.224,16.12,0.001,15.594z
		 M15.077,23.731c3.752,0,7.375,0,11.125,0c-1.863-4.145-3.662-8.143-5.578-12.397C18.692,15.655,16.891,19.675,15.077,23.731z
		 M14.993,23.938c-0.976,2.18-1.847,4.104-2.697,6.039c-0.105,0.236-0.207,0.582-0.113,0.789c0.906,2.006,1.855,3.992,2.896,6.205
		c1.008-2.146,1.9-4.012,2.758-5.895c0.121-0.262,0.184-0.654,0.074-0.896C16.993,28.151,16.03,26.144,14.993,23.938z
		 M26.278,23.911c-1.045,2.229-1.969,4.17-2.856,6.129c-0.116,0.258-0.162,0.648-0.053,0.895c0.883,1.951,1.81,3.885,2.834,6.059
		c1.021-2.211,1.938-4.184,2.832-6.166c0.082-0.184,0.053-0.475-0.029-0.67C28.142,28.147,27.259,26.146,26.278,23.911z"/>
</g>
</svg>
